<svg xmlns="http://www.w3.org/2000/svg" viewBox="0 0 1024 1024">
  <path fill="#6943d0" d="M0 0h1024v1024H0z"/>
  <path fill="#fff" fill-rule="evenodd" d="M929 931.5c-.42.51-8.57 0-9.79 0H429.67c-1.22 0-8.9.43-9.79 0-.88-.43-3.97-5.89-4.38-6.87-.41-.99-1.92-7.77-2.24-8.87-.31-1.09-2.42-7.56-2.76-8.64-.34-1.09-2.29-7.62-2.6-8.72-.31-1.09-2.11-7.69-2.4-8.79-.29-1.11-1.88-8.04-2.25-8.86-.38-.82-3.18-4.43-3.75-4.26s-4.79 7.06-5.42 7.01c-.62-.05-4.11-6.82-4.58-7.84-.47-1.03-2.65-7.47-3-8.55s-2.32-7.61-2.6-8.71c-.29-1.11-1.76-7.84-1.98-8.98-.21-1.13-1.27-8.04-1.42-9.2s-.88-8.2-1-9.38c-.12-1.17-.88-8.2-1-9.37s-.86-8.21-1-9.38c-.14-1.16-.83-9.16-1.2-9.29-.38-.13-4.2 7.18-4.8 7.2-.6.03-4.3-5.85-4.8-6.8-.5-.96-2.86-7.39-3.2-8.47-.34-1.09-1.86-7.8-2.17-8.9-.3-1.09-2.37-7.58-2.68-8.68-.3-1.09-1.89-7.78-2.15-8.89-.26-1.12-1.75-7.85-2-8.97s-1.81-7.81-2-8.96c-.19-1.14-.84-8.22-1.03-9.36-.19-1.15-1.78-7.83-1.97-8.98s-.84-8.22-1-9.37c-.16-1.16-1.35-8.01-1.54-9.16-.19-1.14-1.31-8.02-1.46-9.18s-.88-8.21-1-9.38-.88-8.2-1-9.38c-.12-1.17-.88-8.2-1-9.37-.12-1.18-.88-8.21-1-9.38s-.88-8.2-1-9.38c-.12-1.17-.81-8.41-1-9.37-.19-.97-1.56-5.78-2-6.08-.44-.29-4.58 1.88-5 1.4s-1.55-7.93-1.74-9.08c-.18-1.14-1.12-8.1-1.26-9.26-.14-1.17-.88-8.21-1-9.38s-.94-8.18-1-9.38c-.06-1.19 0-8.56 0-9.79v-9.79c0-1.22-.06-8.59 0-9.79s.94-8.18 1-9.38c.06-1.19-.06-8.59 0-9.79.06-1.19.88-8.2 1-9.37s.86-8.21 1-9.38c.14-1.16 1.11-8.1 1.3-9.25s1.47-7.96 1.7-9.09 1.78-7.83 2-8.96 1.77-8.75 1.51-9.16c-.25-.42-5 2.64-5.53 2.53-.53-.1-2.92-3.36-2.98-4.19-.06-.82 1.7-7.86 2-8.96s2.46-7.55 2.77-8.64c.31-1.1 1.9-7.78 2.23-8.87s2.62-7.48 3-8.55 2.62-7.48 3-8.54c.38-1.07 2.62-7.48 3-8.55s2.77-7.59 3-8.55c.23-.97 1.17-6.77.73-6.9s-7.32 4.96-7.8 4.8-.11-6.31.07-7.3c.18-1 2.47-7.55 2.84-8.61.38-1.07 2.74-7.44 3.16-8.49s3.18-7.25 3.62-8.29 2.92-7.36 3.39-8.39 3.59-7.08 4.09-8.09c.5-1.02 3.43-7.15 3.9-8.18s3.15-7.26 3.58-8.3c.44-1.05 3.02-7.32 3.42-8.38s2.67-7.46 3-8.55c.33-1.08 2.08-7.7 2.33-8.82s1.5-7.95 1.67-9.1c.17-1.16.94-8.18 1-9.38s0-8.57 0-9.79v-48.95c0-1.23.06-8.6 0-9.79-.06-1.2-.81-8.23-1-9.38s-1.72-7.85-2-8.96-2.09-7.7-2.46-8.78c-.36-1.07-2.96-7.34-3.38-8.38-.43-1.05-2.92-7.36-3.39-8.39s-3.54-7.1-4.1-8.1c-.55-.99-4.37-6.75-4.8-7.8-.42-1.05-1.85-7.85-1.97-8.97-.12-1.13.03-7.86.1-9.01.07-1.14.88-8.2 1-9.37s.73-8.27 1-9.38 2.71-7.84 3.29-8.43c.57-.58 5.27-1.34 5.91-.91.65.42 3.63 7.28 4.44 7.7s8.02-1.4 8.55-1c.52.4-.64 6.63-.19 7.44s6.5 4.91 7.46 5.56c.95.65 6.77 4.46 7.81 4.77s7.88.6 8.87.23c.98-.37 6.19-5.25 6.86-6.15s3.53-7.1 3.85-8.2c.31-1.09 1.02-8.14 1.15-9.31s.94-8.18 1-9.38c.06-1.19-.06-8.59 0-9.79s.69-8.28 1-9.37c.31-1.1 3.25-7.22 3.89-8.19.63-.96 5.39-6.33 6.21-7.21s6.28-5.97 6.92-6.92c.65-.96 2.71-7.61 3.39-8.39s6.63-4.22 7.51-4.09c.89.13 5.93 5.25 6.68 6.1.76.85 4.81 6.58 5.4 7.56s3.53 7.1 4 8.13 3.03 7.31 3.59 8.3 4.76 6.6 5.41 7.55c.65.96 4.35 6.77 5 7.72.65.96 4.73 6.61 5.41 7.55s4.85 6.56 5.51 7.51 4.44 6.73 5.08 7.69c.64.95 4.56 6.68 5.23 7.62.67.95 4.87 6.55 5.51 7.51s4.05 6.93 4.8 7.8c.75.88 6.24 5.62 7.22 6.22.97.6 7.32 3.01 8.39 3.39 1.06.37 7.63 2.25 8.68 2.68 1.04.42 7.13 3.45 8.09 4.09s6.38 5.38 7.22 6.22 5.52 6.27 6.21 7.21 4.2 6.83 4.8 7.8c.61.98 4.25 6.81 4.85 7.79.62.97 4.78 6.59 5.51 7.51.74.92 5.49 6.3 6.21 7.22s4.77 6.59 5.51 7.51c.73.92 5.48 6.29 6.21 7.21.74.92 4.78 6.59 5.51 7.51.74.92 5.49 6.3 6.22 7.22s4.77 6.59 5.51 7.51c.73.92 5.47 6.3 6.21 7.21.75.92 4.98 6.51 5.71 7.43s5.32 6.36 6 7.31c.68.94 4.51 6.85 4.82 7.79s.66 6.55.14 7.22c-.51.66-7.24 3.18-8.35 3.46s-8.18.94-9.38 1-8.57 0-9.79 0-8.62.12-9.79 0-7.84-1.75-8.96-2-7.98-1.91-8.96-2-6.5-.04-6.73.53 2.62 7.48 3 8.55 2.62 7.48 3 8.55c.38 1.06 2.57 7.5 3 8.54.43 1.05 3.37 7.18 3.86 8.19.5 1.02 3.59 7.09 4.1 8.1s3.53 7.1 4.04 8.12c.51 1.01 3.59 7.08 4.15 8.07s4.23 6.81 4.85 7.78 4.36 6.76 5 7.72 4.63 6.65 5.26 7.61 4.16 6.85 4.8 7.8c.65.96 4.83 6.57 5.51 7.51s4.79 6.59 5.43 7.54c.64.96 4.32 6.78 4.88 7.77s3.92 7.24 4.12 8.09-.34 5.46-.89 5.53c-.56.07-7.33-4.2-7.98-4.37-.65-.18-2.6.96-2.46 1.54.15.59 4.22 6.82 4.81 7.81.58.98 3.92 6.94 4.52 7.91.6.98 4.43 6.74 5 7.72.57.99 3.61 7.07 4.17 8.06.57 1 4.23 6.82 4.83 7.8.6.97 4.22 6.81 4.78 7.81.55.99 4.29 7.42 4.09 8.09s-6.31 2.72-7.27 2.63c-.97-.09-7.73-4.21-8.14-4s1.13 6.43 1.54 7.38c.41.94 4.32 6.78 5 7.72s5.13 6.44 5.93 7.33c.81.89 6.3 6.1 6.92 6.92.63.83 3.44 5.93 3.08 6.22s-8.29-1.89-8.79-1.57c-.49.32.54 5.78.86 6.7s3.67 7.04 4.23 8.03c.57.99 4.17 6.84 4.77 7.82s4.23 6.81 4.84 7.79c.6.97 4.2 6.82 4.8 7.8.6.97 4.16 6.84 4.8 7.8.65.96 4.82 6.57 5.51 7.51s4.78 6.59 5.51 7.51 5.44 6.31 6.21 7.21c.78.91 5.44 6.32 6.22 7.22s6.23 6.67 6.22 7.22c-.02.54-5.62 1.51-6.47 1.53s-7.07-1.57-7.17-1.17c-.11.39 4.73 6.6 5.51 7.51.77.9 6.03 6.1 6.92 6.92.88.82 6.33 5.39 7.21 6.21.89.83 6.04 6.11 6.93 6.93.88.82 6.33 5.39 7.21 6.21.89.82 6.06 6.06 6.93 6.93l6.92 6.92c.87.87 6.1 6.04 6.92 6.92.82.89 5.44 6.32 6.22 7.22s5.58 6.28 6.21 7.21c.64.94 4.29 7.5 4.01 7.81-.28.3-8-2.97-8.5-2.9s.11 3.36.49 4.09c.37.72 4.82 6.57 5.5 7.5.69.94 4.87 6.56 5.51 7.51.65.96 4.31 6.81 4.81 7.81.49.99 3.51 7.58 3.09 8.09M452 674l-23-19c-19-15-31-31-31-52 0-18 14-32 30-32 12 0 23 6 29 17 6-11 17-17 29-17 16 0 30 14 30 32 0 21-12 37-31 52z"/>
</svg>
